<?xml version="1.0" standalone="no"?>
<!DOCTYPE svg PUBLIC "-//W3C//DTD SVG 20010904//EN"
 "http://www.w3.org/TR/2001/REC-SVG-20010904/DTD/svg10.dtd">
<svg version="1.0" xmlns="http://www.w3.org/2000/svg"
 width="200.000000pt" height="200.000000pt" viewBox="0 0 200.000000 200.000000"
 preserveAspectRatio="xMidYMid meet">

<g transform="translate(0.000000,200.000000) scale(0.100000,-0.100000)"
fill="#000000" stroke="none">
<path d="M830 1847 c-159 -54 -288 -173 -374 -344 -14 -29 -30 -53 -34 -53 -5
0 -61 52 -124 115 -64 63 -127 117 -142 121 -57 14 -138 -56 -152 -132 -10
-53 4 -119 31 -148 20 -22 33 -26 80 -26 60 0 97 -12 191 -65 l61 -35 -18 -75
c-10 -42 -23 -128 -30 -192 -20 -201 3 -357 78 -513 62 -130 168 -238 293
-298 115 -56 183 -72 310 -72 127 0 195 16 310 72 167 81 299 251 349 448 39
154 36 371 -8 554 l-18 76 31 19 c82 51 162 81 214 81 68 0 86 10 106 60 28
71 14 154 -36 207 -26 28 -81 47 -110 37 -12 -3 -73 -58 -137 -120 -63 -63
-118 -114 -123 -114 -4 0 -20 24 -34 53 -90 179 -239 310 -399 352 -90 23
-235 20 -315 -8z m301 -53 c93 -28 152 -64 230 -143 63 -64 85 -95 132 -191
60 -121 98 -246 118 -387 15 -108 7 -350 -15 -425 -41 -149 -129 -275 -246
-353 -101 -68 -189 -96 -316 -103 -297 -14 -528 144 -620 424 -28 87 -29 94
-28 289 0 192 2 205 32 320 20 76 52 161 87 233 47 96 68 126 133 192 78 79
147 122 232 146 65 18 197 17 261 -2z m-857 -291 c67 -65 122 -120 123 -123 2
-3 -1 -11 -6 -19 -7 -10 -26 -4 -95 30 -66 32 -102 44 -153 48 -64 6 -67 7
-75 36 -17 61 20 145 64 145 14 0 66 -43 142 -117z m1635 92 c27 -35 35 -78
21 -119 -10 -33 -12 -33 -78 -38 -55 -4 -84 -13 -148 -47 -90 -47 -90 -46 -98
-26 -8 21 231 254 261 255 12 0 31 -11 42 -25z"/>
<path d="M690 1453 c-37 -19 -110 -108 -110 -134 0 -23 16 -33 79 -54 64 -21
131 -16 190 14 60 31 66 49 31 104 -16 25 -40 53 -54 62 -39 26 -95 29 -136 8z
m113 -71 c22 -20 22 -39 -2 -52 -27 -14 -28 -13 -27 13 1 17 -5 22 -24 22 -21
0 -25 -4 -23 -26 1 -26 0 -26 -33 -16 -19 6 -34 13 -34 17 0 9 53 57 70 63 20
7 51 -2 73 -21z"/>
<path d="M1194 1456 c-30 -13 -69 -56 -93 -104 -15 -29 -4 -45 53 -74 61 -31
140 -33 206 -6 38 16 56 29 57 43 3 23 -56 107 -91 131 -35 22 -95 27 -132 10z
m119 -84 c15 -14 27 -29 27 -32 0 -4 -15 -11 -34 -17 -33 -10 -34 -10 -33 16
2 21 -2 26 -23 26 -17 0 -26 -7 -30 -23 -5 -21 -7 -22 -25 -8 -24 18 -13 43
26 63 30 16 56 8 92 -25z"/>
<path d="M965 1260 c-39 -9 -66 -23 -89 -49 -11 -12 -30 -21 -44 -21 -87 0
-152 -93 -119 -171 23 -56 51 -74 117 -76 32 -1 72 -9 89 -17 39 -20 123 -20
162 0 17 8 57 16 89 17 66 2 94 20 117 76 15 36 10 81 -14 117 -17 26 -71 54
-105 54 -14 0 -33 9 -44 21 -37 41 -104 62 -159 49z m116 -99 c32 -32 39 -46
39 -78 0 -92 -104 -144 -188 -93 -69 42 -72 118 -7 178 27 25 43 32 76 32 35
0 48 -6 80 -39z m-266 -78 c0 -21 4 -48 8 -60 10 -28 -8 -31 -35 -6 -31 28
-19 103 17 103 5 0 10 -17 10 -37z m403 25 c28 -28 2 -108 -35 -108 -11 0 -12
6 -6 23 4 12 8 39 8 60 0 38 11 47 33 25z"/>
<path d="M596 824 c-5 -14 12 -37 76 -102 124 -125 129 -127 328 -127 199 0
205 2 328 128 104 107 103 123 -2 114 -39 -4 -128 -11 -198 -17 -93 -8 -163
-8 -255 0 -71 6 -160 13 -199 17 -63 5 -72 4 -78 -13z m404 -69 c63 0 153 4
200 8 l85 9 -40 -42 c-64 -67 -76 -70 -245 -70 -169 0 -181 3 -245 70 l-40 42
85 -9 c47 -4 137 -8 200 -8z"/>
</g>
</svg>
